<?xml version="1.0" encoding="UTF-8" standalone="no" ?>
<!DOCTYPE svg PUBLIC "-//W3C//DTD SVG 1.1//EN" "http://www.w3.org/Graphics/SVG/1.1/DTD/svg11.dtd">
<svg xmlns="http://www.w3.org/2000/svg" xmlns:xlink="http://www.w3.org/1999/xlink" version="1.1" width="1280" height="1024" viewBox="0 0 1280 1024" xml:space="preserve">
<desc>Created with Fabric.js 4.4.0</desc>
<defs>
</defs>
<g transform="matrix(1 0 0 1 640 512)" id="background-logo"  >
<rect style="stroke: none; stroke-width: 0; stroke-dasharray: none; stroke-linecap: butt; stroke-dashoffset: 0; stroke-linejoin: miter; stroke-miterlimit: 4; fill: rgb(255,255,255); fill-rule: nonzero; opacity: 1;"  paint-order="stroke"  x="-640" y="-512" rx="0" ry="0" width="1280" height="1024" />
</g>
<g transform="matrix(4.139669850431229 0 0 4.139669850431229 641.2301224317479 512.9840979453983)" id="logo-logo"  >
<g style=""  paint-order="stroke"   >
		<g transform="matrix(0.14286501626807566 0 0 0.14286501626807566 0 -2.842171e-14)"  >
<linearGradient id="SVGID_4_452537" gradientUnits="userSpaceOnUse" gradientTransform="matrix(1235.89 0 0 -1235.89 0 676.663)"  x1="0" y1="0" x2="1" y2="0">
<stop offset="0%" style="stop-color:rgb(76,152,246);stop-opacity: 1"/>
<stop offset="40.1188%" style="stop-color:rgb(37,130,244);stop-opacity: 1"/>
<stop offset="100%" style="stop-color:rgb(10,95,199);stop-opacity: 1"/>
</linearGradient>
<path style="stroke: none; stroke-width: 1; stroke-dasharray: none; stroke-linecap: butt; stroke-dashoffset: 0; stroke-linejoin: miter; stroke-miterlimit: 4; fill: url(#SVGID_4_452537); fill-rule: nonzero; opacity: 1;"  paint-order="stroke"  transform=" translate(-618, -676.5)" d="M 433 0 L 433 859 L 432 859 L 432 866 L 431 866 L 431 870 L 430 870 L 430 874 L 429 874 L 429 877 L 428 877 L 428 880 L 427 880 L 427 883 L 426 883 L 426 885 L 425 885 L 425 887 L 424 887 L 424 889 L 423 889 L 423 891 L 422 891 L 422 893 L 421 893 L 421 894 L 420 894 L 420 896 L 419 896 L 419 898 L 418 898 L 418 899 L 417 899 L 417 901 L 416 901 L 416 902 L 415 902 L 415 903 L 414 903 L 414 904 L 413 904 L 413 905 L 412 905 L 412 907 L 411 907 L 411 908 L 410 908 L 410 909 L 409 909 L 409 910 L 408 910 L 408 911 L 407 911 L 407 912 L 406 912 L 406 913 L 405 913 L 405 914 L 404 914 L 404 915 L 402 915 L 402 916 L 401 916 L 401 917 L 400 917 L 400 918 L 399 918 L 399 919 L 398 919 L 398 920 L 396 920 L 396 921 L 395 921 L 395 922 L 393 922 L 393 923 L 391 923 L 391 924 L 389 924 L 389 925 L 387 925 L 387 926 L 386 926 L 386 927 L 384 927 L 384 928 L 382 928 L 382 929 L 379 929 L 379 930 L 376 930 L 376 931 L 373 931 L 373 932 L 370 932 L 370 933 L 367 933 L 367 934 L 361 934 L 361 935 L 354 935 L 354 936 L 343 936 L 343 935 L 336 935 L 336 934 L 330 934 L 330 933 L 327 933 L 327 932 L 324 932 L 324 931 L 320 931 L 320 930 L 317 930 L 317 929 L 315 929 L 315 928 L 313 928 L 313 927 L 311 927 L 311 926 L 309 926 L 309 925 L 307 925 L 307 924 L 306 924 L 306 923 L 304 923 L 304 922 L 302 922 L 302 921 L 300 921 L 300 920 L 299 920 L 299 919 L 298 919 L 298 918 L 297 918 L 297 917 L 296 917 L 296 916 L 294 916 L 294 915 L 293 915 L 293 914 L 292 914 L 292 913 L 291 913 L 291 912 L 290 912 L 290 911 L 288 911 L 288 909 L 287 909 L 287 908 L 286 908 L 286 907 L 285 907 L 285 906 L 284 906 L 284 904 L 283 904 L 283 903 L 282 903 L 282 902 L 281 902 L 281 901 L 280 901 L 280 900 L 279 900 L 279 898 L 278 898 L 278 897 L 277 897 L 277 895 L 276 895 L 276 893 L 275 893 L 275 891 L 274 891 L 274 889 L 273 889 L 273 887 L 272 887 L 272 886 L 271 886 L 271 884 L 270 884 L 270 881 L 269 881 L 269 877 L 268 877 L 268 874 L 267 874 L 267 871 L 266 871 L 266 868 L 265 868 L 265 860 L 264 860 L 264 712 L 0 712 L 0 875 L 1 875 L 1 888 L 2 888 L 2 895 L 3 895 L 3 902 L 4 902 L 4 908 L 5 908 L 5 915 L 6 915 L 6 921 L 7 921 L 7 925 L 8 925 L 8 929 L 9 929 L 9 933 L 10 933 L 10 937 L 11 937 L 11 941 L 12 941 L 12 945 L 13 945 L 13 949 L 14 949 L 14 952 L 15 952 L 15 956 L 16 956 L 16 959 L 17 959 L 17 961 L 18 961 L 18 964 L 19 964 L 19 967 L 20 967 L 20 970 L 21 970 L 21 972 L 22 972 L 22 975 L 23 975 L 23 978 L 24 978 L 24 981 L 25 981 L 25 983 L 26 983 L 26 986 L 27 986 L 27 988 L 28 988 L 28 990 L 29 990 L 29 993 L 30 993 L 30 995 L 31 995 L 31 997 L 32 997 L 32 999 L 33 999 L 33 1001 L 34 1001 L 34 1003 L 35 1003 L 35 1005 L 36 1005 L 36 1007 L 37 1007 L 37 1009 L 38 1009 L 38 1011 L 39 1011 L 39 1013 L 40 1013 L 40 1015 L 41 1015 L 41 1017 L 42 1017 L 42 1019 L 43 1019 L 43 1021 L 44 1021 L 44 1022 L 45 1022 L 45 1024 L 46 1024 L 46 1026 L 47 1026 L 47 1027 L 48 1027 L 48 1029 L 49 1029 L 49 1031 L 50 1031 L 50 1032 L 51 1032 L 51 1034 L 52 1034 L 52 1036 L 53 1036 L 53 1037 L 54 1037 L 54 1039 L 55 1039 L 55 1041 L 56 1041 L 56 1042 L 57 1042 L 57 1044 L 58 1044 L 58 1045 L 59 1045 L 59 1047 L 60 1047 L 60 1048 L 61 1048 L 61 1050 L 62 1050 L 62 1051 L 63 1051 L 63 1052 L 64 1052 L 64 1054 L 65 1054 L 65 1055 L 66 1055 L 66 1056 L 67 1056 L 67 1058 L 68 1058 L 68 1059 L 69 1059 L 69 1060 L 70 1060 L 70 1062 L 71 1062 L 71 1063 L 72 1063 L 72 1064 L 73 1064 L 73 1066 L 74 1066 L 74 1067 L 75 1067 L 75 1068 L 76 1068 L 76 1070 L 77 1070 L 77 1071 L 78 1071 L 78 1072 L 79 1072 L 79 1074 L 80 1074 L 80 1075 L 81 1075 L 81 1076 L 82 1076 L 82 1077 L 83 1077 L 83 1078 L 84 1078 L 84 1079 L 85 1079 L 85 1080 L 86 1080 L 86 1081 L 87 1081 L 87 1082 L 88 1082 L 88 1083 L 89 1083 L 89 1085 L 90 1085 L 90 1086 L 91 1086 L 91 1087 L 92 1087 L 92 1088 L 93 1088 L 93 1089 L 94 1089 L 94 1090 L 95 1090 L 95 1091 L 96 1091 L 96 1092 L 97 1092 L 97 1093 L 98 1093 L 98 1095 L 99 1095 L 99 1096 L 100 1096 L 100 1097 L 101 1097 L 101 1098 L 102 1098 L 102 1099 L 103 1099 L 103 1100 L 104 1100 L 104 1101 L 106 1101 L 106 1102 L 107 1102 L 107 1103 L 108 1103 L 108 1104 L 109 1104 L 109 1105 L 110 1105 L 110 1106 L 111 1106 L 111 1107 L 112 1107 L 112 1108 L 113 1108 L 113 1109 L 114 1109 L 114 1110 L 115 1110 L 115 1111 L 117 1111 L 117 1112 L 118 1112 L 118 1113 L 119 1113 L 119 1114 L 120 1114 L 120 1115 L 121 1115 L 121 1116 L 122 1116 L 122 1117 L 123 1117 L 123 1118 L 124 1118 L 124 1119 L 125 1119 L 125 1120 L 126 1120 L 126 1121 L 128 1121 L 128 1122 L 129 1122 L 129 1123 L 130 1123 L 130 1124 L 132 1124 L 132 1125 L 133 1125 L 133 1126 L 134 1126 L 134 1127 L 136 1127 L 136 1128 L 137 1128 L 137 1129 L 139 1129 L 139 1130 L 140 1130 L 140 1131 L 141 1131 L 141 1132 L 143 1132 L 143 1133 L 144 1133 L 144 1134 L 145 1134 L 145 1135 L 147 1135 L 147 1136 L 148 1136 L 148 1137 L 149 1137 L 149 1138 L 151 1138 L 151 1139 L 152 1139 L 152 1140 L 153 1140 L 153 1141 L 155 1141 L 155 1142 L 157 1142 L 157 1143 L 158 1143 L 158 1144 L 160 1144 L 160 1145 L 161 1145 L 161 1146 L 163 1146 L 163 1147 L 165 1147 L 165 1148 L 166 1148 L 166 1149 L 168 1149 L 168 1150 L 170 1150 L 170 1151 L 171 1151 L 171 1152 L 173 1152 L 173 1153 L 175 1153 L 175 1154 L 176 1154 L 176 1155 L 178 1155 L 178 1156 L 180 1156 L 180 1157 L 181 1157 L 181 1158 L 183 1158 L 183 1159 L 185 1159 L 185 1160 L 187 1160 L 187 1161 L 189 1161 L 189 1162 L 191 1162 L 191 1163 L 193 1163 L 193 1164 L 196 1164 L 196 1165 L 198 1165 L 198 1166 L 200 1166 L 200 1167 L 202 1167 L 202 1168 L 204 1168 L 204 1169 L 206 1169 L 206 1170 L 208 1170 L 208 1171 L 210 1171 L 210 1172 L 212 1172 L 212 1173 L 215 1173 L 215 1174 L 218 1174 L 218 1175 L 220 1175 L 220 1176 L 223 1176 L 223 1177 L 226 1177 L 226 1178 L 229 1178 L 229 1179 L 231 1179 L 231 1180 L 234 1180 L 234 1181 L 237 1181 L 237 1182 L 239 1182 L 239 1183 L 242 1183 L 242 1184 L 245 1184 L 245 1185 L 249 1185 L 249 1186 L 253 1186 L 253 1187 L 257 1187 L 257 1188 L 261 1188 L 261 1189 L 265 1189 L 265 1190 L 268 1190 L 268 1191 L 272 1191 L 272 1192 L 276 1192 L 276 1193 L 282 1193 L 282 1194 L 288 1194 L 288 1195 L 295 1195 L 295 1196 L 301 1196 L 301 1197 L 308 1197 L 308 1198 L 318 1198 L 318 1199 L 332 1199 L 332 1200 L 364 1200 L 364 1199 L 380 1199 L 380 1198 L 388 1198 L 388 1197 L 395 1197 L 395 1196 L 402 1196 L 402 1195 L 409 1195 L 409 1194 L 416 1194 L 416 1193 L 420 1193 L 420 1192 L 424 1192 L 424 1191 L 428 1191 L 428 1190 L 432 1190 L 432 1189 L 436 1189 L 436 1188 L 440 1188 L 440 1187 L 444 1187 L 444 1186 L 448 1186 L 448 1185 L 451 1185 L 451 1184 L 454 1184 L 454 1183 L 457 1183 L 457 1182 L 460 1182 L 460 1181 L 463 1181 L 463 1180 L 465 1180 L 465 1179 L 468 1179 L 468 1178 L 471 1178 L 471 1177 L 474 1177 L 474 1176 L 477 1176 L 477 1175 L 480 1175 L 480 1174 L 482 1174 L 482 1173 L 484 1173 L 484 1172 L 486 1172 L 486 1171 L 488 1171 L 488 1170 L 490 1170 L 490 1169 L 493 1169 L 493 1168 L 495 1168 L 495 1167 L 497 1167 L 497 1166 L 499 1166 L 499 1165 L 501 1165 L 501 1164 L 504 1164 L 504 1163 L 506 1163 L 506 1162 L 508 1162 L 508 1161 L 510 1161 L 510 1160 L 511 1160 L 511 1159 L 513 1159 L 513 1158 L 515 1158 L 515 1157 L 517 1157 L 517 1156 L 518 1156 L 518 1155 L 520 1155 L 520 1154 L 522 1154 L 522 1153 L 524 1153 L 524 1152 L 525 1152 L 525 1151 L 527 1151 L 527 1150 L 529 1150 L 529 1149 L 531 1149 L 531 1148 L 532 1148 L 532 1147 L 534 1147 L 534 1146 L 536 1146 L 536 1145 L 537 1145 L 537 1144 L 539 1144 L 539 1143 L 540 1143 L 540 1142 L 542 1142 L 542 1141 L 543 1141 L 543 1140 L 544 1140 L 544 1139 L 546 1139 L 546 1138 L 547 1138 L 547 1137 L 549 1137 L 549 1136 L 550 1136 L 550 1135 L 551 1135 L 551 1134 L 553 1134 L 553 1133 L 554 1133 L 554 1132 L 556 1132 L 556 1131 L 557 1131 L 557 1130 L 558 1130 L 558 1129 L 560 1129 L 560 1128 L 561 1128 L 561 1127 L 563 1127 L 563 1126 L 564 1126 L 564 1125 L 565 1125 L 565 1124 L 566 1124 L 566 1123 L 567 1123 L 567 1122 L 569 1122 L 569 1121 L 570 1121 L 570 1120 L 571 1120 L 571 1119 L 572 1119 L 572 1118 L 573 1118 L 573 1117 L 574 1117 L 574 1116 L 576 1116 L 576 1115 L 577 1115 L 577 1114 L 578 1114 L 578 1113 L 579 1113 L 579 1112 L 580 1112 L 580 1111 L 581 1111 L 581 1110 L 583 1110 L 583 1109 L 584 1109 L 584 1108 L 585 1108 L 585 1107 L 586 1107 L 586 1106 L 587 1106 L 587 1105 L 588 1105 L 588 1104 L 589 1104 L 589 1103 L 590 1103 L 590 1102 L 591 1102 L 591 1101 L 592 1101 L 592 1100 L 593 1100 L 593 1099 L 594 1099 L 594 1098 L 595 1098 L 595 1097 L 596 1097 L 596 1096 L 597 1096 L 597 1095 L 598 1095 L 598 1094 L 599 1094 L 599 1093 L 600 1093 L 600 1092 L 601 1092 L 601 1091 L 602 1091 L 602 1090 L 603 1090 L 603 1089 L 604 1089 L 604 1088 L 605 1088 L 605 1087 L 606 1087 L 606 1086 L 607 1086 L 607 1085 L 608 1085 L 608 1084 L 609 1084 L 609 1083 L 610 1083 L 610 1081 L 611 1081 L 611 1080 L 612 1080 L 612 1079 L 613 1079 L 613 1078 L 614 1078 L 614 1076 L 615 1076 L 615 1075 L 616 1075 L 616 1074 L 617 1074 L 617 1073 L 618 1073 L 618 1071 L 619 1071 L 619 1070 L 620 1070 L 620 1069 L 621 1069 L 621 1068 L 622 1068 L 622 1066 L 623 1066 L 623 1065 L 624 1065 L 624 1064 L 625 1064 L 625 1063 L 626 1063 L 626 1062 L 627 1062 L 627 1060 L 628 1060 L 628 1059 L 629 1059 L 629 1058 L 630 1058 L 630 1056 L 631 1056 L 631 1055 L 632 1055 L 632 1053 L 633 1053 L 633 1052 L 634 1052 L 634 1050 L 635 1050 L 635 1049 L 636 1049 L 636 1047 L 637 1047 L 637 1046 L 638 1046 L 638 1044 L 639 1044 L 639 1043 L 640 1043 L 640 1041 L 641 1041 L 641 1040 L 642 1040 L 642 1038 L 643 1038 L 643 1037 L 644 1037 L 644 1035 L 645 1035 L 645 1034 L 646 1034 L 646 1032 L 647 1032 L 647 1031 L 648 1031 L 648 1029 L 649 1029 L 649 1027 L 650 1027 L 650 1025 L 651 1025 L 651 1023 L 652 1023 L 652 1022 L 653 1022 L 653 1020 L 654 1020 L 654 1018 L 655 1018 L 655 1016 L 656 1016 L 656 1014 L 657 1014 L 657 1012 L 658 1012 L 658 1010 L 659 1010 L 659 1009 L 660 1009 L 660 1007 L 661 1007 L 661 1005 L 662 1005 L 662 1003 L 663 1003 L 663 1001 L 664 1001 L 664 999 L 665 999 L 665 996 L 666 996 L 666 994 L 667 994 L 667 991 L 668 991 L 668 989 L 669 989 L 669 987 L 670 987 L 670 984 L 671 984 L 671 982 L 672 982 L 672 980 L 673 980 L 673 977 L 674 977 L 674 975 L 675 975 L 675 973 L 676 973 L 676 970 L 677 970 L 677 966 L 678 966 L 678 963 L 679 963 L 679 960 L 680 960 L 680 957 L 681 957 L 681 954 L 682 954 L 682 951 L 683 951 L 683 947 L 684 947 L 684 944 L 685 944 L 685 941 L 686 941 L 686 937 L 687 937 L 687 932 L 688 932 L 688 927 L 689 927 L 689 923 L 690 923 L 690 918 L 691 918 L 691 913 L 692 913 L 692 908 L 693 908 L 693 901 L 694 901 L 694 893 L 695 893 L 695 886 L 696 886 L 696 477 L 804 477 L 804 478 L 815 478 L 815 479 L 822 479 L 822 480 L 829 480 L 829 481 L 833 481 L 833 482 L 837 482 L 837 483 L 841 483 L 841 484 L 845 484 L 845 485 L 848 485 L 848 486 L 851 486 L 851 487 L 854 487 L 854 488 L 857 488 L 857 489 L 859 489 L 859 490 L 862 490 L 862 491 L 865 491 L 865 492 L 867 492 L 867 493 L 869 493 L 869 494 L 871 494 L 871 495 L 873 495 L 873 496 L 875 496 L 875 497 L 877 497 L 877 498 L 879 498 L 879 499 L 881 499 L 881 500 L 883 500 L 883 501 L 884 501 L 884 502 L 886 502 L 886 503 L 888 503 L 888 504 L 889 504 L 889 505 L 891 505 L 891 506 L 892 506 L 892 507 L 894 507 L 894 508 L 895 508 L 895 509 L 897 509 L 897 510 L 898 510 L 898 511 L 900 511 L 900 512 L 901 512 L 901 513 L 902 513 L 902 514 L 904 514 L 904 515 L 905 515 L 905 516 L 906 516 L 906 517 L 908 517 L 908 518 L 909 518 L 909 519 L 910 519 L 910 520 L 911 520 L 911 521 L 912 521 L 912 522 L 913 522 L 913 523 L 914 523 L 914 524 L 915 524 L 915 525 L 916 525 L 916 526 L 918 526 L 918 527 L 919 527 L 919 528 L 920 528 L 920 529 L 921 529 L 921 530 L 922 530 L 922 531 L 923 531 L 923 532 L 924 532 L 924 534 L 925 534 L 925 535 L 926 535 L 926 536 L 927 536 L 927 537 L 928 537 L 928 538 L 929 538 L 929 539 L 930 539 L 930 540 L 931 540 L 931 541 L 932 541 L 932 542 L 933 542 L 933 544 L 934 544 L 934 545 L 935 545 L 935 546 L 936 546 L 936 548 L 937 548 L 937 549 L 938 549 L 938 550 L 939 550 L 939 552 L 940 552 L 940 553 L 941 553 L 941 554 L 942 554 L 942 556 L 943 556 L 943 557 L 944 557 L 944 559 L 945 559 L 945 561 L 946 561 L 946 562 L 947 562 L 947 564 L 948 564 L 948 566 L 949 566 L 949 567 L 950 567 L 950 569 L 951 569 L 951 571 L 952 571 L 952 573 L 953 573 L 953 575 L 954 575 L 954 577 L 955 577 L 955 579 L 956 579 L 956 581 L 957 581 L 957 583 L 958 583 L 958 585 L 959 585 L 959 587 L 960 587 L 960 590 L 961 590 L 961 593 L 962 593 L 962 596 L 963 596 L 963 598 L 964 598 L 964 601 L 965 601 L 965 604 L 966 604 L 966 608 L 967 608 L 967 612 L 968 612 L 968 616 L 969 616 L 969 620 L 970 620 L 970 626 L 971 626 L 971 633 L 972 633 L 972 642 L 973 642 L 973 669 L 972 669 L 972 678 L 971 678 L 971 684 L 970 684 L 970 691 L 969 691 L 969 695 L 968 695 L 968 699 L 967 699 L 967 702 L 966 702 L 966 706 L 965 706 L 965 710 L 964 710 L 964 712 L 963 712 L 963 715 L 962 715 L 962 718 L 961 718 L 961 721 L 960 721 L 960 723 L 959 723 L 959 726 L 958 726 L 958 728 L 957 728 L 957 730 L 956 730 L 956 732 L 955 732 L 955 734 L 954 734 L 954 736 L 953 736 L 953 738 L 952 738 L 952 740 L 951 740 L 951 742 L 950 742 L 950 743 L 949 743 L 949 745 L 948 745 L 948 747 L 947 747 L 947 748 L 946 748 L 946 750 L 945 750 L 945 752 L 944 752 L 944 753 L 943 753 L 943 755 L 942 755 L 942 756 L 941 756 L 941 758 L 940 758 L 940 759 L 939 759 L 939 760 L 938 760 L 938 762 L 937 762 L 937 763 L 936 763 L 936 764 L 935 764 L 935 766 L 934 766 L 934 767 L 933 767 L 933 768 L 932 768 L 932 769 L 931 769 L 931 771 L 930 771 L 930 772 L 929 772 L 929 773 L 928 773 L 928 774 L 927 774 L 927 775 L 926 775 L 926 776 L 925 776 L 925 777 L 924 777 L 924 778 L 923 778 L 923 779 L 922 779 L 922 780 L 921 780 L 921 781 L 920 781 L 920 782 L 919 782 L 919 783 L 918 783 L 918 784 L 917 784 L 917 785 L 916 785 L 916 786 L 915 786 L 915 787 L 914 787 L 914 788 L 913 788 L 913 789 L 912 789 L 912 790 L 911 790 L 911 791 L 909 791 L 909 792 L 908 792 L 908 793 L 907 793 L 907 794 L 906 794 L 906 795 L 904 795 L 904 796 L 903 796 L 903 797 L 902 797 L 902 798 L 900 798 L 900 799 L 899 799 L 899 800 L 898 800 L 898 801 L 896 801 L 896 802 L 895 802 L 895 803 L 894 803 L 894 804 L 892 804 L 892 805 L 890 805 L 890 806 L 889 806 L 889 807 L 887 807 L 887 808 L 885 808 L 885 809 L 884 809 L 884 810 L 882 810 L 882 811 L 880 811 L 880 812 L 879 812 L 879 813 L 876 813 L 876 814 L 874 814 L 874 815 L 872 815 L 872 816 L 870 816 L 870 817 L 868 817 L 868 818 L 866 818 L 866 819 L 864 819 L 864 820 L 861 820 L 861 821 L 858 821 L 858 822 L 856 822 L 856 823 L 853 823 L 853 824 L 850 824 L 850 825 L 848 825 L 848 826 L 844 826 L 844 827 L 840 827 L 840 828 L 836 828 L 836 829 L 832 829 L 832 830 L 826 830 L 826 831 L 820 831 L 820 832 L 813 832 L 813 833 L 799 833 L 799 834 L 783 834 L 783 879 L 782 879 L 782 890 L 781 890 L 781 901 L 780 901 L 780 908 L 779 908 L 779 915 L 778 915 L 778 922 L 777 922 L 777 928 L 776 928 L 776 933 L 775 933 L 775 938 L 774 938 L 774 943 L 773 943 L 773 948 L 772 948 L 772 952 L 771 952 L 771 956 L 770 956 L 770 960 L 769 960 L 769 964 L 768 964 L 768 967 L 767 967 L 767 971 L 766 971 L 766 975 L 765 975 L 765 978 L 764 978 L 764 981 L 763 981 L 763 984 L 762 984 L 762 987 L 761 987 L 761 990 L 760 990 L 760 993 L 759 993 L 759 996 L 758 996 L 758 999 L 757 999 L 757 1001 L 756 1001 L 756 1004 L 755 1004 L 755 1007 L 754 1007 L 754 1009 L 753 1009 L 753 1012 L 752 1012 L 752 1014 L 751 1014 L 751 1017 L 750 1017 L 750 1019 L 749 1019 L 749 1022 L 748 1022 L 748 1024 L 747 1024 L 747 1026 L 746 1026 L 746 1029 L 745 1029 L 745 1031 L 744 1031 L 744 1033 L 743 1033 L 743 1035 L 742 1035 L 742 1037 L 741 1037 L 741 1040 L 740 1040 L 740 1042 L 739 1042 L 739 1044 L 738 1044 L 738 1046 L 737 1046 L 737 1047 L 736 1047 L 736 1049 L 735 1049 L 735 1051 L 734 1051 L 734 1053 L 733 1053 L 733 1055 L 732 1055 L 732 1057 L 731 1057 L 731 1059 L 730 1059 L 730 1061 L 729 1061 L 729 1063 L 728 1063 L 728 1064 L 727 1064 L 727 1066 L 726 1066 L 726 1068 L 725 1068 L 725 1069 L 724 1069 L 724 1071 L 723 1071 L 723 1073 L 722 1073 L 722 1074 L 721 1074 L 721 1076 L 720 1076 L 720 1078 L 719 1078 L 719 1079 L 718 1079 L 718 1081 L 717 1081 L 717 1083 L 716 1083 L 716 1084 L 715 1084 L 715 1086 L 714 1086 L 714 1087 L 713 1087 L 713 1089 L 712 1089 L 712 1090 L 711 1090 L 711 1092 L 710 1092 L 710 1093 L 709 1093 L 709 1095 L 708 1095 L 708 1096 L 707 1096 L 707 1098 L 706 1098 L 706 1099 L 705 1099 L 705 1100 L 704 1100 L 704 1102 L 703 1102 L 703 1103 L 702 1103 L 702 1105 L 701 1105 L 701 1106 L 700 1106 L 700 1107 L 699 1107 L 699 1109 L 698 1109 L 698 1110 L 697 1110 L 697 1111 L 696 1111 L 696 1113 L 695 1113 L 695 1114 L 694 1114 L 694 1115 L 693 1115 L 693 1116 L 692 1116 L 692 1118 L 691 1118 L 691 1119 L 690 1119 L 690 1120 L 689 1120 L 689 1122 L 688 1122 L 688 1123 L 687 1123 L 687 1124 L 686 1124 L 686 1125 L 685 1125 L 685 1127 L 684 1127 L 684 1128 L 683 1128 L 683 1129 L 682 1129 L 682 1130 L 681 1130 L 681 1132 L 680 1132 L 680 1133 L 679 1133 L 679 1134 L 678 1134 L 678 1135 L 677 1135 L 677 1136 L 676 1136 L 676 1137 L 675 1137 L 675 1138 L 674 1138 L 674 1139 L 673 1139 L 673 1141 L 672 1141 L 672 1142 L 671 1142 L 671 1143 L 670 1143 L 670 1144 L 669 1144 L 669 1145 L 668 1145 L 668 1146 L 667 1146 L 667 1147 L 666 1147 L 666 1148 L 665 1148 L 665 1150 L 664 1150 L 664 1151 L 663 1151 L 663 1152 L 662 1152 L 662 1153 L 661 1153 L 661 1154 L 660 1154 L 660 1155 L 659 1155 L 659 1156 L 658 1156 L 658 1157 L 657 1157 L 657 1158 L 656 1158 L 656 1159 L 655 1159 L 655 1160 L 654 1160 L 654 1161 L 653 1161 L 653 1162 L 652 1162 L 652 1163 L 651 1163 L 651 1164 L 650 1164 L 650 1165 L 649 1165 L 649 1166 L 648 1166 L 648 1167 L 647 1167 L 647 1168 L 645 1168 L 645 1169 L 644 1169 L 644 1170 L 643 1170 L 643 1171 L 642 1171 L 642 1172 L 641 1172 L 641 1173 L 640 1173 L 640 1174 L 639 1174 L 639 1175 L 638 1175 L 638 1176 L 636 1176 L 636 1177 L 635 1177 L 635 1178 L 634 1178 L 634 1179 L 633 1179 L 633 1180 L 632 1180 L 632 1181 L 631 1181 L 631 1182 L 630 1182 L 630 1183 L 628 1183 L 628 1184 L 627 1184 L 627 1185 L 626 1185 L 626 1186 L 625 1186 L 625 1187 L 624 1187 L 624 1188 L 622 1188 L 622 1189 L 621 1189 L 621 1190 L 620 1190 L 620 1191 L 619 1191 L 619 1192 L 617 1192 L 617 1193 L 616 1193 L 616 1194 L 615 1194 L 615 1195 L 613 1195 L 613 1196 L 612 1196 L 612 1197 L 611 1197 L 611 1198 L 610 1198 L 610 1199 L 608 1199 L 608 1200 L 607 1200 L 607 1201 L 606 1201 L 606 1202 L 604 1202 L 604 1203 L 603 1203 L 603 1204 L 602 1204 L 602 1205 L 600 1205 L 600 1206 L 599 1206 L 599 1207 L 597 1207 L 597 1208 L 596 1208 L 596 1209 L 594 1209 L 594 1210 L 593 1210 L 593 1211 L 591 1211 L 591 1212 L 590 1212 L 590 1213 L 588 1213 L 588 1214 L 587 1214 L 587 1215 L 585 1215 L 585 1216 L 584 1216 L 584 1217 L 583 1217 L 583 1218 L 581 1218 L 581 1219 L 579 1219 L 579 1220 L 578 1220 L 578 1221 L 576 1221 L 576 1222 L 574 1222 L 574 1223 L 573 1223 L 573 1224 L 571 1224 L 571 1225 L 569 1225 L 569 1226 L 568 1226 L 568 1227 L 566 1227 L 566 1228 L 564 1228 L 564 1229 L 563 1229 L 563 1230 L 561 1230 L 561 1231 L 559 1231 L 559 1232 L 557 1232 L 557 1233 L 555 1233 L 555 1234 L 553 1234 L 553 1235 L 551 1235 L 551 1236 L 549 1236 L 549 1237 L 548 1237 L 548 1238 L 546 1238 L 546 1239 L 544 1239 L 544 1240 L 542 1240 L 542 1241 L 540 1241 L 540 1242 L 538 1242 L 538 1243 L 536 1243 L 536 1244 L 534 1244 L 534 1245 L 531 1245 L 531 1246 L 529 1246 L 529 1247 L 527 1247 L 527 1248 L 525 1248 L 525 1249 L 522 1249 L 522 1250 L 520 1250 L 520 1251 L 518 1251 L 518 1252 L 516 1252 L 516 1253 L 513 1253 L 513 1254 L 511 1254 L 511 1255 L 508 1255 L 508 1256 L 506 1256 L 506 1257 L 503 1257 L 503 1258 L 500 1258 L 500 1259 L 497 1259 L 497 1260 L 495 1260 L 495 1261 L 492 1261 L 492 1262 L 489 1262 L 489 1263 L 487 1263 L 487 1264 L 484 1264 L 484 1265 L 480 1265 L 480 1266 L 477 1266 L 477 1267 L 473 1267 L 473 1268 L 470 1268 L 470 1269 L 467 1269 L 467 1270 L 463 1270 L 463 1271 L 460 1271 L 460 1272 L 456 1272 L 456 1273 L 452 1273 L 452 1274 L 447 1274 L 447 1275 L 443 1275 L 443 1276 L 439 1276 L 439 1277 L 434 1277 L 434 1278 L 429 1278 L 429 1279 L 423 1279 L 423 1280 L 417 1280 L 417 1281 L 410 1281 L 410 1282 L 404 1282 L 404 1283 L 394 1283 L 394 1284 L 384 1284 L 384 1285 L 369 1285 L 369 1286 L 327 1286 L 327 1285 L 313 1285 L 313 1284 L 302 1284 L 302 1283 L 293 1283 L 293 1282 L 286 1282 L 286 1281 L 280 1281 L 280 1280 L 274 1280 L 274 1279 L 267 1279 L 267 1278 L 263 1278 L 263 1277 L 258 1277 L 258 1276 L 254 1276 L 254 1275 L 249 1275 L 249 1274 L 245 1274 L 245 1273 L 240 1273 L 240 1272 L 237 1272 L 237 1271 L 233 1271 L 233 1270 L 230 1270 L 230 1269 L 226 1269 L 226 1268 L 223 1268 L 223 1267 L 219 1267 L 219 1266 L 216 1266 L 216 1265 L 213 1265 L 213 1264 L 210 1264 L 210 1263 L 207 1263 L 207 1262 L 205 1262 L 205 1261 L 202 1261 L 202 1260 L 199 1260 L 199 1259 L 196 1259 L 196 1258 L 193 1258 L 193 1257 L 190 1257 L 190 1256 L 188 1256 L 188 1255 L 186 1255 L 186 1254 L 183 1254 L 183 1253 L 181 1253 L 181 1252 L 179 1252 L 179 1251 L 176 1251 L 176 1250 L 174 1250 L 174 1249 L 172 1249 L 172 1248 L 169 1248 L 169 1247 L 167 1247 L 167 1246 L 165 1246 L 165 1245 L 163 1245 L 163 1244 L 161 1244 L 161 1243 L 159 1243 L 159 1242 L 156 1242 L 156 1241 L 154 1241 L 154 1240 L 152 1240 L 152 1239 L 150 1239 L 150 1238 L 148 1238 L 148 1237 L 146 1237 L 146 1236 L 144 1236 L 144 1235 L 143 1235 L 143 1234 L 141 1234 L 141 1235 L 142 1235 L 142 1236 L 143 1236 L 143 1237 L 144 1237 L 144 1238 L 145 1238 L 145 1239 L 146 1239 L 146 1240 L 147 1240 L 147 1241 L 149 1241 L 149 1242 L 150 1242 L 150 1243 L 151 1243 L 151 1244 L 152 1244 L 152 1245 L 154 1245 L 154 1246 L 155 1246 L 155 1247 L 156 1247 L 156 1248 L 158 1248 L 158 1249 L 159 1249 L 159 1250 L 160 1250 L 160 1251 L 162 1251 L 162 1252 L 163 1252 L 163 1253 L 164 1253 L 164 1254 L 166 1254 L 166 1255 L 167 1255 L 167 1256 L 168 1256 L 168 1257 L 170 1257 L 170 1258 L 171 1258 L 171 1259 L 172 1259 L 172 1260 L 174 1260 L 174 1261 L 175 1261 L 175 1262 L 176 1262 L 176 1263 L 178 1263 L 178 1264 L 179 1264 L 179 1265 L 181 1265 L 181 1266 L 182 1266 L 182 1267 L 184 1267 L 184 1268 L 186 1268 L 186 1269 L 187 1269 L 187 1270 L 189 1270 L 189 1271 L 190 1271 L 190 1272 L 192 1272 L 192 1273 L 193 1273 L 193 1274 L 195 1274 L 195 1275 L 196 1275 L 196 1276 L 198 1276 L 198 1277 L 199 1277 L 199 1278 L 201 1278 L 201 1279 L 202 1279 L 202 1280 L 204 1280 L 204 1281 L 206 1281 L 206 1282 L 207 1282 L 207 1283 L 209 1283 L 209 1284 L 210 1284 L 210 1285 L 212 1285 L 212 1286 L 214 1286 L 214 1287 L 216 1287 L 216 1288 L 217 1288 L 217 1289 L 219 1289 L 219 1290 L 221 1290 L 221 1291 L 223 1291 L 223 1292 L 225 1292 L 225 1293 L 227 1293 L 227 1294 L 229 1294 L 229 1295 L 231 1295 L 231 1296 L 232 1296 L 232 1297 L 234 1297 L 234 1298 L 236 1298 L 236 1299 L 238 1299 L 238 1300 L 240 1300 L 240 1301 L 242 1301 L 242 1302 L 244 1302 L 244 1303 L 245 1303 L 245 1304 L 247 1304 L 247 1305 L 249 1305 L 249 1306 L 252 1306 L 252 1307 L 254 1307 L 254 1308 L 256 1308 L 256 1309 L 259 1309 L 259 1310 L 261 1310 L 261 1311 L 263 1311 L 263 1312 L 266 1312 L 266 1313 L 268 1313 L 268 1314 L 270 1314 L 270 1315 L 273 1315 L 273 1316 L 275 1316 L 275 1317 L 277 1317 L 277 1318 L 280 1318 L 280 1319 L 282 1319 L 282 1320 L 284 1320 L 284 1321 L 287 1321 L 287 1322 L 289 1322 L 289 1323 L 292 1323 L 292 1324 L 295 1324 L 295 1325 L 298 1325 L 298 1326 L 301 1326 L 301 1327 L 305 1327 L 305 1328 L 308 1328 L 308 1329 L 311 1329 L 311 1330 L 314 1330 L 314 1331 L 317 1331 L 317 1332 L 320 1332 L 320 1333 L 323 1333 L 323 1334 L 326 1334 L 326 1335 L 329 1335 L 329 1336 L 333 1336 L 333 1337 L 337 1337 L 337 1338 L 342 1338 L 342 1339 L 346 1339 L 346 1340 L 350 1340 L 350 1341 L 355 1341 L 355 1342 L 359 1342 L 359 1343 L 363 1343 L 363 1344 L 368 1344 L 368 1345 L 372 1345 L 372 1346 L 379 1346 L 379 1347 L 386 1347 L 386 1348 L 393 1348 L 393 1349 L 401 1349 L 401 1350 L 408 1350 L 408 1351 L 415 1351 L 415 1352 L 429 1352 L 429 1353 L 500 1353 L 500 1352 L 509 1352 L 509 1351 L 519 1351 L 519 1350 L 528 1350 L 528 1349 L 536 1349 L 536 1348 L 542 1348 L 542 1347 L 548 1347 L 548 1346 L 553 1346 L 553 1345 L 559 1345 L 559 1344 L 564 1344 L 564 1343 L 570 1343 L 570 1342 L 574 1342 L 574 1341 L 578 1341 L 578 1340 L 581 1340 L 581 1339 L 585 1339 L 585 1338 L 589 1338 L 589 1337 L 593 1337 L 593 1336 L 597 1336 L 597 1335 L 601 1335 L 601 1334 L 605 1334 L 605 1333 L 608 1333 L 608 1332 L 611 1332 L 611 1331 L 614 1331 L 614 1330 L 617 1330 L 617 1329 L 620 1329 L 620 1328 L 623 1328 L 623 1327 L 626 1327 L 626 1326 L 629 1326 L 629 1325 L 632 1325 L 632 1324 L 635 1324 L 635 1323 L 637 1323 L 637 1322 L 640 1322 L 640 1321 L 642 1321 L 642 1320 L 645 1320 L 645 1319 L 647 1319 L 647 1318 L 650 1318 L 650 1317 L 652 1317 L 652 1316 L 655 1316 L 655 1315 L 657 1315 L 657 1314 L 660 1314 L 660 1313 L 662 1313 L 662 1312 L 664 1312 L 664 1311 L 667 1311 L 667 1310 L 669 1310 L 669 1309 L 671 1309 L 671 1308 L 673 1308 L 673 1307 L 675 1307 L 675 1306 L 677 1306 L 677 1305 L 679 1305 L 679 1304 L 681 1304 L 681 1303 L 683 1303 L 683 1302 L 685 1302 L 685 1301 L 687 1301 L 687 1300 L 689 1300 L 689 1299 L 691 1299 L 691 1298 L 693 1298 L 693 1297 L 695 1297 L 695 1296 L 697 1296 L 697 1295 L 699 1295 L 699 1294 L 701 1294 L 701 1293 L 703 1293 L 703 1292 L 704 1292 L 704 1291 L 706 1291 L 706 1290 L 708 1290 L 708 1289 L 709 1289 L 709 1288 L 711 1288 L 711 1287 L 713 1287 L 713 1286 L 715 1286 L 715 1285 L 716 1285 L 716 1284 L 718 1284 L 718 1283 L 720 1283 L 720 1282 L 722 1282 L 722 1281 L 723 1281 L 723 1280 L 725 1280 L 725 1279 L 727 1279 L 727 1278 L 728 1278 L 728 1277 L 730 1277 L 730 1276 L 731 1276 L 731 1275 L 733 1275 L 733 1274 L 734 1274 L 734 1273 L 736 1273 L 736 1272 L 737 1272 L 737 1271 L 739 1271 L 739 1270 L 740 1270 L 740 1269 L 742 1269 L 742 1268 L 743 1268 L 743 1267 L 745 1267 L 745 1266 L 746 1266 L 746 1265 L 748 1265 L 748 1264 L 749 1264 L 749 1263 L 751 1263 L 751 1262 L 752 1262 L 752 1261 L 753 1261 L 753 1260 L 755 1260 L 755 1259 L 756 1259 L 756 1258 L 757 1258 L 757 1257 L 759 1257 L 759 1256 L 760 1256 L 760 1255 L 761 1255 L 761 1254 L 763 1254 L 763 1253 L 764 1253 L 764 1252 L 765 1252 L 765 1251 L 767 1251 L 767 1250 L 768 1250 L 768 1249 L 769 1249 L 769 1248 L 770 1248 L 770 1247 L 772 1247 L 772 1246 L 773 1246 L 773 1245 L 774 1245 L 774 1244 L 776 1244 L 776 1243 L 777 1243 L 777 1242 L 778 1242 L 778 1241 L 779 1241 L 779 1240 L 781 1240 L 781 1239 L 782 1239 L 782 1238 L 783 1238 L 783 1237 L 784 1237 L 784 1236 L 785 1236 L 785 1235 L 786 1235 L 786 1234 L 787 1234 L 787 1233 L 789 1233 L 789 1232 L 790 1232 L 790 1231 L 791 1231 L 791 1230 L 792 1230 L 792 1229 L 793 1229 L 793 1228 L 794 1228 L 794 1227 L 795 1227 L 795 1226 L 796 1226 L 796 1225 L 798 1225 L 798 1224 L 799 1224 L 799 1223 L 800 1223 L 800 1222 L 801 1222 L 801 1221 L 802 1221 L 802 1220 L 803 1220 L 803 1219 L 804 1219 L 804 1218 L 805 1218 L 805 1217 L 807 1217 L 807 1216 L 808 1216 L 808 1214 L 809 1214 L 809 1213 L 810 1213 L 810 1212 L 811 1212 L 811 1211 L 812 1211 L 812 1210 L 813 1210 L 813 1209 L 814 1209 L 814 1208 L 815 1208 L 815 1207 L 816 1207 L 816 1206 L 817 1206 L 817 1205 L 818 1205 L 818 1204 L 819 1204 L 819 1203 L 820 1203 L 820 1202 L 821 1202 L 821 1201 L 822 1201 L 822 1200 L 823 1200 L 823 1199 L 824 1199 L 824 1198 L 825 1198 L 825 1197 L 826 1197 L 826 1196 L 827 1196 L 827 1195 L 828 1195 L 828 1194 L 829 1194 L 829 1193 L 830 1193 L 830 1192 L 831 1192 L 831 1191 L 832 1191 L 832 1190 L 833 1190 L 833 1188 L 834 1188 L 834 1187 L 835 1187 L 835 1186 L 836 1186 L 836 1185 L 837 1185 L 837 1184 L 838 1184 L 838 1183 L 839 1183 L 839 1181 L 840 1181 L 840 1180 L 841 1180 L 841 1179 L 842 1179 L 842 1178 L 843 1178 L 843 1177 L 844 1177 L 844 1176 L 845 1176 L 845 1174 L 846 1174 L 846 1173 L 847 1173 L 847 1172 L 848 1172 L 848 1171 L 849 1171 L 849 1170 L 850 1170 L 850 1169 L 851 1169 L 851 1167 L 852 1167 L 852 1166 L 853 1166 L 853 1165 L 854 1165 L 854 1163 L 855 1163 L 855 1162 L 856 1162 L 856 1161 L 857 1161 L 857 1159 L 858 1159 L 858 1158 L 859 1158 L 859 1157 L 860 1157 L 860 1155 L 861 1155 L 861 1154 L 862 1154 L 862 1153 L 863 1153 L 863 1151 L 864 1151 L 864 1150 L 865 1150 L 865 1149 L 866 1149 L 866 1147 L 867 1147 L 867 1146 L 868 1146 L 868 1145 L 869 1145 L 869 1143 L 870 1143 L 870 1142 L 871 1142 L 871 1141 L 872 1141 L 872 1139 L 873 1139 L 873 1138 L 874 1138 L 874 1136 L 875 1136 L 875 1135 L 876 1135 L 876 1133 L 877 1133 L 877 1131 L 878 1131 L 878 1130 L 879 1130 L 879 1128 L 880 1128 L 880 1127 L 881 1127 L 881 1125 L 882 1125 L 882 1124 L 883 1124 L 883 1122 L 884 1122 L 884 1121 L 885 1121 L 885 1119 L 886 1119 L 886 1118 L 887 1118 L 887 1116 L 888 1116 L 888 1114 L 889 1114 L 889 1113 L 890 1113 L 890 1111 L 891 1111 L 891 1110 L 892 1110 L 892 1108 L 893 1108 L 893 1106 L 894 1106 L 894 1104 L 895 1104 L 895 1103 L 896 1103 L 896 1101 L 897 1101 L 897 1099 L 898 1099 L 898 1097 L 899 1097 L 899 1095 L 900 1095 L 900 1094 L 901 1094 L 901 1092 L 902 1092 L 902 1090 L 903 1090 L 903 1088 L 904 1088 L 904 1086 L 905 1086 L 905 1084 L 906 1084 L 906 1082 L 910 1082 L 910 1081 L 914 1081 L 914 1080 L 917 1080 L 917 1079 L 921 1079 L 921 1078 L 924 1078 L 924 1077 L 927 1077 L 927 1076 L 930 1076 L 930 1075 L 933 1075 L 933 1074 L 936 1074 L 936 1073 L 939 1073 L 939 1072 L 942 1072 L 942 1071 L 945 1071 L 945 1070 L 947 1070 L 947 1069 L 950 1069 L 950 1068 L 952 1068 L 952 1067 L 955 1067 L 955 1066 L 957 1066 L 957 1065 L 960 1065 L 960 1064 L 962 1064 L 962 1063 L 965 1063 L 965 1062 L 967 1062 L 967 1061 L 970 1061 L 970 1060 L 973 1060 L 973 1059 L 975 1059 L 975 1058 L 977 1058 L 977 1057 L 979 1057 L 979 1056 L 981 1056 L 981 1055 L 983 1055 L 983 1054 L 985 1054 L 985 1053 L 987 1053 L 987 1052 L 989 1052 L 989 1051 L 991 1051 L 991 1050 L 993 1050 L 993 1049 L 995 1049 L 995 1048 L 997 1048 L 997 1047 L 999 1047 L 999 1046 L 1001 1046 L 1001 1045 L 1003 1045 L 1003 1044 L 1005 1044 L 1005 1043 L 1007 1043 L 1007 1042 L 1009 1042 L 1009 1041 L 1011 1041 L 1011 1040 L 1012 1040 L 1012 1039 L 1014 1039 L 1014 1038 L 1016 1038 L 1016 1037 L 1017 1037 L 1017 1036 L 1019 1036 L 1019 1035 L 1021 1035 L 1021 1034 L 1022 1034 L 1022 1033 L 1024 1033 L 1024 1032 L 1026 1032 L 1026 1031 L 1027 1031 L 1027 1030 L 1029 1030 L 1029 1029 L 1030 1029 L 1030 1028 L 1032 1028 L 1032 1027 L 1034 1027 L 1034 1026 L 1035 1026 L 1035 1025 L 1037 1025 L 1037 1024 L 1039 1024 L 1039 1023 L 1040 1023 L 1040 1022 L 1041 1022 L 1041 1021 L 1043 1021 L 1043 1020 L 1044 1020 L 1044 1019 L 1046 1019 L 1046 1018 L 1047 1018 L 1047 1017 L 1048 1017 L 1048 1016 L 1050 1016 L 1050 1015 L 1051 1015 L 1051 1014 L 1053 1014 L 1053 1013 L 1054 1013 L 1054 1012 L 1055 1012 L 1055 1011 L 1057 1011 L 1057 1010 L 1058 1010 L 1058 1009 L 1060 1009 L 1060 1008 L 1061 1008 L 1061 1007 L 1062 1007 L 1062 1006 L 1064 1006 L 1064 1005 L 1065 1005 L 1065 1004 L 1066 1004 L 1066 1003 L 1068 1003 L 1068 1002 L 1069 1002 L 1069 1001 L 1070 1001 L 1070 1000 L 1071 1000 L 1071 999 L 1072 999 L 1072 998 L 1074 998 L 1074 997 L 1075 997 L 1075 996 L 1076 996 L 1076 995 L 1077 995 L 1077 994 L 1078 994 L 1078 993 L 1079 993 L 1079 992 L 1081 992 L 1081 991 L 1082 991 L 1082 990 L 1083 990 L 1083 989 L 1084 989 L 1084 988 L 1085 988 L 1085 987 L 1087 987 L 1087 986 L 1088 986 L 1088 985 L 1089 985 L 1089 984 L 1090 984 L 1090 983 L 1091 983 L 1091 982 L 1092 982 L 1092 981 L 1094 981 L 1094 980 L 1095 980 L 1095 979 L 1096 979 L 1096 978 L 1097 978 L 1097 977 L 1098 977 L 1098 976 L 1099 976 L 1099 975 L 1100 975 L 1100 974 L 1101 974 L 1101 973 L 1102 973 L 1102 972 L 1103 972 L 1103 971 L 1104 971 L 1104 970 L 1105 970 L 1105 969 L 1106 969 L 1106 968 L 1107 968 L 1107 967 L 1108 967 L 1108 966 L 1109 966 L 1109 965 L 1110 965 L 1110 964 L 1111 964 L 1111 963 L 1112 963 L 1112 962 L 1113 962 L 1113 961 L 1114 961 L 1114 960 L 1115 960 L 1115 959 L 1116 959 L 1116 958 L 1117 958 L 1117 957 L 1118 957 L 1118 956 L 1119 956 L 1119 955 L 1120 955 L 1120 954 L 1121 954 L 1121 952 L 1122 952 L 1122 951 L 1123 951 L 1123 950 L 1124 950 L 1124 949 L 1125 949 L 1125 948 L 1126 948 L 1126 946 L 1127 946 L 1127 945 L 1128 945 L 1128 944 L 1129 944 L 1129 943 L 1130 943 L 1130 942 L 1131 942 L 1131 941 L 1132 941 L 1132 939 L 1133 939 L 1133 938 L 1134 938 L 1134 937 L 1135 937 L 1135 936 L 1136 936 L 1136 935 L 1137 935 L 1137 934 L 1138 934 L 1138 932 L 1139 932 L 1139 931 L 1140 931 L 1140 930 L 1141 930 L 1141 929 L 1142 929 L 1142 928 L 1143 928 L 1143 926 L 1144 926 L 1144 925 L 1145 925 L 1145 924 L 1146 924 L 1146 922 L 1147 922 L 1147 921 L 1148 921 L 1148 919 L 1149 919 L 1149 918 L 1150 918 L 1150 917 L 1151 917 L 1151 915 L 1152 915 L 1152 914 L 1153 914 L 1153 912 L 1154 912 L 1154 911 L 1155 911 L 1155 910 L 1156 910 L 1156 908 L 1157 908 L 1157 907 L 1158 907 L 1158 906 L 1159 906 L 1159 904 L 1160 904 L 1160 903 L 1161 903 L 1161 901 L 1162 901 L 1162 900 L 1163 900 L 1163 899 L 1164 899 L 1164 897 L 1165 897 L 1165 895 L 1166 895 L 1166 894 L 1167 894 L 1167 892 L 1168 892 L 1168 890 L 1169 890 L 1169 889 L 1170 889 L 1170 887 L 1171 887 L 1171 885 L 1172 885 L 1172 884 L 1173 884 L 1173 882 L 1174 882 L 1174 880 L 1175 880 L 1175 879 L 1176 879 L 1176 877 L 1177 877 L 1177 875 L 1178 875 L 1178 874 L 1179 874 L 1179 872 L 1180 872 L 1180 871 L 1181 871 L 1181 869 L 1182 869 L 1182 867 L 1183 867 L 1183 865 L 1184 865 L 1184 863 L 1185 863 L 1185 861 L 1186 861 L 1186 859 L 1187 859 L 1187 857 L 1188 857 L 1188 855 L 1189 855 L 1189 853 L 1190 853 L 1190 851 L 1191 851 L 1191 849 L 1192 849 L 1192 847 L 1193 847 L 1193 845 L 1194 845 L 1194 843 L 1195 843 L 1195 841 L 1196 841 L 1196 839 L 1197 839 L 1197 837 L 1198 837 L 1198 835 L 1199 835 L 1199 832 L 1200 832 L 1200 830 L 1201 830 L 1201 827 L 1202 827 L 1202 825 L 1203 825 L 1203 822 L 1204 822 L 1204 820 L 1205 820 L 1205 817 L 1206 817 L 1206 815 L 1207 815 L 1207 812 L 1208 812 L 1208 810 L 1209 810 L 1209 807 L 1210 807 L 1210 805 L 1211 805 L 1211 802 L 1212 802 L 1212 799 L 1213 799 L 1213 796 L 1214 796 L 1214 792 L 1215 792 L 1215 789 L 1216 789 L 1216 786 L 1217 786 L 1217 783 L 1218 783 L 1218 779 L 1219 779 L 1219 776 L 1220 776 L 1220 773 L 1221 773 L 1221 769 L 1222 769 L 1222 766 L 1223 766 L 1223 761 L 1224 761 L 1224 756 L 1225 756 L 1225 752 L 1226 752 L 1226 747 L 1227 747 L 1227 743 L 1228 743 L 1228 738 L 1229 738 L 1229 733 L 1230 733 L 1230 727 L 1231 727 L 1231 719 L 1232 719 L 1232 712 L 1233 712 L 1233 704 L 1234 704 L 1234 696 L 1235 696 L 1235 681 L 1236 681 L 1236 628 L 1235 628 L 1235 615 L 1234 615 L 1234 605 L 1233 605 L 1233 597 L 1232 597 L 1232 589 L 1231 589 L 1231 583 L 1230 583 L 1230 578 L 1229 578 L 1229 572 L 1228 572 L 1228 566 L 1227 566 L 1227 562 L 1226 562 L 1226 558 L 1225 558 L 1225 553 L 1224 553 L 1224 549 L 1223 549 L 1223 545 L 1222 545 L 1222 541 L 1221 541 L 1221 538 L 1220 538 L 1220 534 L 1219 534 L 1219 531 L 1218 531 L 1218 527 L 1217 527 L 1217 524 L 1216 524 L 1216 521 L 1215 521 L 1215 518 L 1214 518 L 1214 515 L 1213 515 L 1213 512 L 1212 512 L 1212 509 L 1211 509 L 1211 506 L 1210 506 L 1210 503 L 1209 503 L 1209 500 L 1208 500 L 1208 498 L 1207 498 L 1207 495 L 1206 495 L 1206 493 L 1205 493 L 1205 490 L 1204 490 L 1204 488 L 1203 488 L 1203 485 L 1202 485 L 1202 483 L 1201 483 L 1201 481 L 1200 481 L 1200 478 L 1199 478 L 1199 476 L 1198 476 L 1198 474 L 1197 474 L 1197 472 L 1196 472 L 1196 469 L 1195 469 L 1195 467 L 1194 467 L 1194 465 L 1193 465 L 1193 463 L 1192 463 L 1192 461 L 1191 461 L 1191 459 L 1190 459 L 1190 457 L 1189 457 L 1189 455 L 1188 455 L 1188 453 L 1187 453 L 1187 451 L 1186 451 L 1186 449 L 1185 449 L 1185 447 L 1184 447 L 1184 445 L 1183 445 L 1183 444 L 1182 444 L 1182 442 L 1181 442 L 1181 440 L 1180 440 L 1180 438 L 1179 438 L 1179 437 L 1178 437 L 1178 435 L 1177 435 L 1177 433 L 1176 433 L 1176 431 L 1175 431 L 1175 430 L 1174 430 L 1174 428 L 1173 428 L 1173 426 L 1172 426 L 1172 425 L 1171 425 L 1171 423 L 1170 423 L 1170 421 L 1169 421 L 1169 420 L 1168 420 L 1168 418 L 1167 418 L 1167 417 L 1166 417 L 1166 415 L 1165 415 L 1165 414 L 1164 414 L 1164 412 L 1163 412 L 1163 411 L 1162 411 L 1162 409 L 1161 409 L 1161 408 L 1160 408 L 1160 406 L 1159 406 L 1159 405 L 1158 405 L 1158 403 L 1157 403 L 1157 402 L 1156 402 L 1156 401 L 1155 401 L 1155 399 L 1154 399 L 1154 398 L 1153 398 L 1153 396 L 1152 396 L 1152 395 L 1151 395 L 1151 393 L 1150 393 L 1150 392 L 1149 392 L 1149 391 L 1148 391 L 1148 389 L 1147 389 L 1147 388 L 1146 388 L 1146 387 L 1145 387 L 1145 386 L 1144 386 L 1144 384 L 1143 384 L 1143 383 L 1142 383 L 1142 382 L 1141 382 L 1141 381 L 1140 381 L 1140 379 L 1139 379 L 1139 378 L 1138 378 L 1138 377 L 1137 377 L 1137 375 L 1136 375 L 1136 374 L 1135 374 L 1135 373 L 1134 373 L 1134 372 L 1133 372 L 1133 371 L 1132 371 L 1132 370 L 1131 370 L 1131 368 L 1130 368 L 1130 367 L 1129 367 L 1129 366 L 1128 366 L 1128 365 L 1127 365 L 1127 364 L 1126 364 L 1126 363 L 1125 363 L 1125 361 L 1124 361 L 1124 360 L 1123 360 L 1123 359 L 1122 359 L 1122 358 L 1121 358 L 1121 357 L 1120 357 L 1120 356 L 1119 356 L 1119 355 L 1118 355 L 1118 354 L 1117 354 L 1117 353 L 1116 353 L 1116 352 L 1115 352 L 1115 351 L 1114 351 L 1114 350 L 1113 350 L 1113 349 L 1112 349 L 1112 348 L 1111 348 L 1111 347 L 1110 347 L 1110 345 L 1109 345 L 1109 344 L 1108 344 L 1108 343 L 1107 343 L 1107 342 L 1106 342 L 1106 341 L 1105 341 L 1105 340 L 1103 340 L 1103 339 L 1102 339 L 1102 338 L 1101 338 L 1101 337 L 1100 337 L 1100 336 L 1099 336 L 1099 335 L 1098 335 L 1098 334 L 1097 334 L 1097 333 L 1096 333 L 1096 332 L 1095 332 L 1095 331 L 1094 331 L 1094 330 L 1093 330 L 1093 329 L 1092 329 L 1092 328 L 1091 328 L 1091 327 L 1090 327 L 1090 326 L 1088 326 L 1088 325 L 1087 325 L 1087 324 L 1086 324 L 1086 323 L 1085 323 L 1085 322 L 1084 322 L 1084 321 L 1083 321 L 1083 320 L 1082 320 L 1082 319 L 1080 319 L 1080 318 L 1079 318 L 1079 317 L 1078 317 L 1078 316 L 1077 316 L 1077 315 L 1076 315 L 1076 314 L 1074 314 L 1074 313 L 1073 313 L 1073 312 L 1072 312 L 1072 311 L 1071 311 L 1071 310 L 1069 310 L 1069 309 L 1068 309 L 1068 308 L 1067 308 L 1067 307 L 1066 307 L 1066 306 L 1064 306 L 1064 305 L 1063 305 L 1063 304 L 1062 304 L 1062 303 L 1060 303 L 1060 302 L 1059 302 L 1059 301 L 1058 301 L 1058 300 L 1056 300 L 1056 299 L 1055 299 L 1055 298 L 1054 298 L 1054 297 L 1052 297 L 1052 296 L 1051 296 L 1051 295 L 1049 295 L 1049 294 L 1048 294 L 1048 293 L 1047 293 L 1047 292 L 1045 292 L 1045 291 L 1044 291 L 1044 290 L 1042 290 L 1042 289 L 1041 289 L 1041 288 L 1039 288 L 1039 287 L 1038 287 L 1038 286 L 1036 286 L 1036 285 L 1035 285 L 1035 284 L 1033 284 L 1033 283 L 1031 283 L 1031 282 L 1030 282 L 1030 281 L 1028 281 L 1028 280 L 1027 280 L 1027 279 L 1025 279 L 1025 278 L 1024 278 L 1024 277 L 1022 277 L 1022 276 L 1020 276 L 1020 275 L 1018 275 L 1018 274 L 1017 274 L 1017 273 L 1015 273 L 1015 272 L 1013 272 L 1013 271 L 1011 271 L 1011 270 L 1010 270 L 1010 269 L 1008 269 L 1008 268 L 1006 268 L 1006 267 L 1004 267 L 1004 266 L 1002 266 L 1002 265 L 1000 265 L 1000 264 L 999 264 L 999 263 L 997 263 L 997 262 L 995 262 L 995 261 L 993 261 L 993 260 L 991 260 L 991 259 L 989 259 L 989 258 L 987 258 L 987 257 L 985 257 L 985 256 L 982 256 L 982 255 L 980 255 L 980 254 L 978 254 L 978 253 L 976 253 L 976 252 L 974 252 L 974 251 L 971 251 L 971 250 L 969 250 L 969 249 L 967 249 L 967 248 L 964 248 L 964 247 L 962 247 L 962 246 L 959 246 L 959 245 L 957 245 L 957 244 L 954 244 L 954 243 L 952 243 L 952 242 L 949 242 L 949 241 L 947 241 L 947 240 L 944 240 L 944 239 L 941 239 L 941 238 L 938 238 L 938 237 L 935 237 L 935 236 L 932 236 L 932 235 L 929 235 L 929 234 L 926 234 L 926 233 L 922 233 L 922 232 L 919 232 L 919 231 L 915 231 L 915 230 L 912 230 L 912 229 L 908 229 L 908 228 L 904 228 L 904 227 L 900 227 L 900 226 L 896 226 L 896 225 L 891 225 L 891 224 L 887 224 L 887 223 L 882 223 L 882 222 L 877 222 L 877 221 L 871 221 L 871 220 L 865 220 L 865 219 L 859 219 L 859 218 L 851 218 L 851 217 L 843 217 L 843 216 L 832 216 L 832 215 L 819 215 L 819 214 L 696 214 L 696 0" stroke-linecap="round" />
</g>
</g>
</g>
</svg>